<?xml version="1.0" encoding="UTF-8" standalone="no"?>
<svg
   xmlns:dc="http://purl.org/dc/elements/1.1/"
   xmlns:cc="http://creativecommons.org/ns#"
   xmlns:rdf="http://www.w3.org/1999/02/22-rdf-syntax-ns#"
   xmlns:svg="http://www.w3.org/2000/svg"
   xmlns="http://www.w3.org/2000/svg"
   viewBox="0 0 300.35999 126.74667"
   height="126.74667"
   width="300.35999"
   xml:space="preserve"
   id="svg2"
   version="1.1"><metadata
     id="metadata8"><rdf:RDF><cc:Work
         rdf:about=""><dc:format>image/svg+xml</dc:format><dc:type
           rdf:resource="http://purl.org/dc/dcmitype/StillImage" /></cc:Work></rdf:RDF></metadata><defs
     id="defs6" /><g
     transform="matrix(1.3333333,0,0,-1.3333333,0,126.74667)"
     id="g10"><g
       transform="scale(0.1)"
       id="g12"><path
         id="path14"
         style="fill:#231f20;fill-opacity:1;fill-rule:nonzero;stroke:none"
         d="m 909.199,339.359 45.473,392.77 c 12.406,-155.598 24.801,-286.606 37.121,-392.77 z M 1572.23,522.57 1433.65,950.59 H 1226.96 V 250.148 L 1122.81,950.59 H 765.531 c -10.73,-73.883 -88.992,-670.824 -88.992,-670.824 0,0 -56.559,643.047 -59.973,670.824 H 359.887 C 323.422,681.625 300.641,464.215 291.512,298.258 L 266.27,618.922 240.156,950.59 H 0 L 110.645,0 H 417.516 C 453.629,252.457 476.59,418.645 486.473,498.488 508.086,312.195 533.023,146.051 561.266,0 h 333.726 l 14.856,170.871 H 998.27 L 1011.54,0 h 422.11 V 432.172 L 1562.21,0 h 216.67 v 760.336 h 79.82 V 0 h 247.18 v 760.336 h 146.78 V 950.59 H 1572.23 V 522.57" /></g></g></svg>